<svg  xmlns="http://www.w3.org/2000/svg" version="1.1" viewBox="0 0 400 240" height="100%" width="100%">
  <title>CSS Positionierung mit display:flex</title>
<g  style="fill:#ebece6;stroke:#cccccc;stroke-width:2">
  <rect width="117" height="94" x="142.5" y="144" />
  <rect width="117" height="94" x="282.7" y="144" />
  <rect width="117" height="94" x="1" y="144" />
  <rect width="117" height="94" x="142.5" y="1" />
  <rect width="117" height="94" x="282.7" y="1" />
  <rect width="117" height="94" x="1" y="1" />
</g>
<g  style="fill:#8d99bf">
  <rect width="31.15" height="68.53" x="51.44" y="19" />
  <rect width="12.46" height="38.94" x="33.48" y="19" />
  <rect width="21.8" height="54.51" x="7.008" y="19" />
  <rect width="21.8" height="54.51" x="170.5" y="19" />
  <rect width="12.46" height="38.94" x="199.1" y="19" />
  <rect width="31.15" height="68.53" x="217.8" y="19" />
  <rect width="22.05" height="54.51" x="301.8" y="19" />
  <rect width="13.2" height="38.94" x="329.4" y="19" />
  <rect width="31.15" height="68.53" x="348.9" y="19" />
  <rect width="31.15" height="41.27" x="52.17" y="155.3" />
  <rect width="12.46" height="29.59" x="33.48" y="156.2" />
  <rect width="21.8" height="54.51" x="7.008" y="156.2" />
  <rect width="31.15" height="41.27" x="195.1" y="189.5" />
  <rect width="12.46" height="29.31" x="177.1" y="201.7" />
  <rect width="21.8" height="54.51" x="150.5" y="176.1" />
  <rect width="31.15" height="41.27" x="334.8" y="169.3" />
  <rect width="12.46" height="29.59" x="316.9" y="174.9" />
  <rect width="21.8" height="54.51" x="290.5" y="162.4" />
</g>
<g  style="stroke:#d2502a;stroke-width:2">
  <path d="m 7,77.87 0,-73.198" />
  <path d="m 33.48,61.52 0,-56.848" />
  <path d="m 50.62,91.42 0,-86.748" />
  <path d="m 193.1,78.65 0,-73.978" />
  <path d="m 249.8,92.67 0,-87.998" />
  <path d="m 212.4,62.3 0,-57.628" />
  <path d="m 324.7,78.65 0,-73.978" />
  <path d="m 348.1,92.67 0,-87.998" />
  <path d="m 343.4,62.3 0,-57.628" />
  <path d="m 329.4,62.3 0,-57.628" />
  <path d="m 4.361,155.4 109.039,0" />
  <path d="m 147.2,231 109,0" />
  <path d="m 287.3,190.5 109.1,0" />
</g>
  <text text-anchor="middle" y="129" x="200" style="letter-spacing:1px; font-family:sans-serif; font-size:18px;fill:hsl(220,30%,60%)">Ausrichten mit flex</text>
</svg>
